#!OML:ASF E:/inclinewalkrobotboard/Project1/Captureday1/Session1/subject1.ASF
:FULLY-SPECIFIED
:DEGREES
276
root 0 0 0 -1.1849412500594574 -2.8411034152464185 -0.9010501918454089
lowerback 10.939784903924423 0.5593219793125135 0.48072606389012035
upperback -1.0841251229249065 0.8791000281132537 0.9261820159969084
thorax -7.254241101403625 0.4037623745785399 0.45898545857602296
lowerneck -13.46795779833001 -1.4369918623457945 0.1789656898339404
upperneck 19.04885802129505 -1.4497858826104522 -2.296043183320452
head 8.223357728955364 -0.8284744189833366 -0.9841504896468654
rclavicle -4.613170441430987E-16 -2.280322893448169E-16
rhumerus -11.84501759984266 -6.817246074587852 -67.31993416600676
rradius 42.88015690478176
rwrist 11.981868074383772
rhand -23.5780940686355 -5.411704524785557
rfingers 7.125020000000134
rthumb 3.127580766599806 -35.57576002449842
lclavicle -9.669742329402116E-16 -8.147283517816336E-16
lhumerus -11.979718977359429 -4.209199080635315 68.41116332178753
lradius 44.001705544557645
lwrist -5.304596725944276
lhand -33.45497182747518 -11.495892608868177
lfingers 7.125020000000128
lthumb -6.743444253890201 17.5754045134143
rfemur 3.5654148679154325 9.341775422600048 34.4986271434285
rtibia 20.027620910173855
rfoot -16.512659406463627 -4.862441589871444
rtoes 3.4942859593406173
lfemur 1.4277468453598505 -0.10404321626326041 -20.98123282915198
ltibia 50.999764716019484
lfoot 4.244292403942277 -14.064311180640503
ltoes -6.931401341241798
277
root 0 0 0 -1.183318903762397 -2.842694112423424 -0.8984931286001917
lowerback 10.940891903375169 0.5599987817700547 0.4811257723336144
upperback -1.0880328708605007 0.8796440651295083 0.9247063844984398
thorax -7.258422806628125 0.4040183274745568 0.4572936387267089
lowerneck -13.462029430314349 -1.4340870469801894 0.18293802010021137
upperneck 19.049788686473413 -1.4438622689026386 -2.3009257617984242
head 8.222401224928365 -0.8263480900235457 -0.9861484654037612
rclavicle -4.608547369716171E-16 -2.347858604122559E-16
rhumerus -11.723163196438765 -6.732918380125335 -67.24627532533063
rradius 42.99558076984147
rwrist 12.039655933161693
rhand -23.619137566820342 -5.610614463551807
rfingers 7.125020000000133
rthumb 3.086620672997073 -35.766786325457055
lclavicle -9.745866736774587E-16 -8.129119491162414E-16
lhumerus -12.07788941502708 -4.183906000661309 68.48006462952624
lradius 43.92494287867679
lwrist -5.25299572191465
lhand -33.42120462767367 -11.315337318327327
lfingers 7.125020000000128
lthumb -6.711264501530875 17.745204123563433
rfemur 8.775044794826659 9.314108873949255 36.37339025203903
rtibia 23.640309426428082
rfoot -16.42429591148591 -3.435064250489254
rtoes 5.062376060964956
lfemur -9.167854970936629 0.8508310563241509 -16.267100518158024
ltibia 57.45730771432549
lfoot 7.203712945961174 -13.387783788072623
ltoes -6.106528101446085
278
root 0 0 0 -1.173432647283853 -2.84679774117814 -0.8868460056604773
lowerback 10.945330020904183 0.5617816996030455 0.47875345484583437
upperback -1.1031339300645802 0.8807332648747561 0.9183509371887132
thorax -7.277069802249397 0.40476571030780417 0.4513472967301709
lowerneck -13.431908709868642 -1.4207229953454288 0.20107246970768505
upperneck 19.050326755088417 -1.4218109845959148 -2.325937673226594
head 8.217182133654058 -0.8174529856608883 -0.9957295937972781
rclavicle -4.615284288363573E-16 -2.525611208849688E-16
rhumerus -11.397567101333081 -6.5141972535476 -67.04635765517105
rradius 43.30457852957075
rwrist 12.19285818148807
rhand -23.728517577424462 -6.144086133232227
rfingers 7.1250200000001325
rthumb 2.9763327077246475 -36.2852187691858
lclavicle -9.771327386937564E-16 -8.102979660231475E-16
lhumerus -11.976517336384315 -4.206688490207717 68.40360656012741
lradius 44.01032799505078
lwrist -5.31375177075392
lhand -33.45739420114593 -11.511356139193579
lfingers 7.125020000000128
lthumb -6.745642806407781 17.543453850993547
rfemur 11.653075908442588 9.048401371925305 37.28962183852385
rtibia 27.282236876646742
rfoot -15.847609854660305 -2.465281149286172
rtoes 6.174543234534155
lfemur -18.852443585618435 1.2831379546210906 -12.530602310333668
ltibia 59.48555745784216
lfoot 7.755590844422601 -11.147234550371525
ltoes -5.03359554222455
279
root 0 0 0 -1.1588939872331536 -2.8520680473914632 -0.8699819608701322
lowerback 10.951644546158384 0.5641867704772268 0.47515509344535256
upperback -1.1242544460812027 0.8822668090669573 0.9091810715293436
thorax -7.303747444490471 0.4057289139742081 0.44318402449543276
lowerneck -13.388297688834655 -1.4015191840475512 0.22722381992523327
upperneck 19.05037024886815 -1.3911858707816056 -2.361957425717846
head 8.2094038443709 -0.804847020179928 -1.0094936410590432
rclavicle -4.651747441177987E-16 -2.7455365695637625E-16
rhumerus -10.986956669846728 -6.239581470226202 -66.7940885750776
rradius 43.69244693277766
rwrist 12.384931147182314
rhand -23.866062058602267 -6.813683220472395
rfingers 7.125020000000131
rthumb 2.8377859072268232 -36.93963525605102
lclavicle -9.770977782226903E-16 -8.072520019420019E-16
lhumerus -11.80575210501313 -4.246435927149327 68.27761265214754
lradius 44.150393540300534
lwrist -5.412843929344233
lhand -33.51802378118298 -11.839829985134525
lfingers 7.125020000000127
lthumb -6.803134378708776 17.2170856080936
rfemur 13.144593947892279 8.75037694382023 37.683778503231245
rtibia 30.22355935043627
rfoot -15.20973892366968 -1.8491636183908131
rtoes 6.91453092757695
lfemur -26.55792643956785 1.0432144889436836 -10.0630428668113
ltibia 56.82599865146918
lfoot 6.526608981554036 -7.814038855858866
ltoes -3.4532565120095704
